<?xml version="1.0" standalone="no"?><!-- Generator: Gravit.io --><svg xmlns="http://www.w3.org/2000/svg" xmlns:xlink="http://www.w3.org/1999/xlink" style="isolation:isolate" viewBox="0 0 385.658 385.234" width="385.658" height="385.234"><defs><clipPath id="_clipPath_0ViBw5IPiQi46w2ylX2J9FW9JGYltmAD"><rect width="385.658" height="385.234"/></clipPath></defs><g clip-path="url(#_clipPath_0ViBw5IPiQi46w2ylX2J9FW9JGYltmAD)"><g><g><defs><filter id="RluZ4G2VwrgErzr0MZdCJkqoAMVtULPv" x="-200%" y="-200%" width="400%" height="400%" filterUnits="objectBoundingBox" color-interpolation-filters="sRGB"><feGaussianBlur xmlns="http://www.w3.org/2000/svg" in="SourceGraphic" stdDeviation="2.146804531419514"/><feOffset xmlns="http://www.w3.org/2000/svg" dx="10" dy="6" result="pf_100_offsetBlur"/><feFlood xmlns="http://www.w3.org/2000/svg" flood-color="#000000" flood-opacity="0.65"/><feComposite xmlns="http://www.w3.org/2000/svg" in2="pf_100_offsetBlur" operator="in" result="pf_100_dropShadow"/><feBlend xmlns="http://www.w3.org/2000/svg" in="SourceGraphic" in2="pf_100_dropShadow" mode="normal"/></filter></defs><g filter="url(#RluZ4G2VwrgErzr0MZdCJkqoAMVtULPv)"><path d=" M 178.03 62.224 C 102.863 -15.276 24.197 49.39 30.197 107.724 C 28.384 180.699 143.197 241.39 161.197 257.39 C 200.197 290.057 216.53 336.224 191.53 370.724 C 191.03 371.224 197.53 354.057 197.53 339.39 C 201.197 299.724 165.697 273.39 107.03 240.724 Q 2.863 190.724 1.53 112.057 C 0.376 43.977 32.53 17.724 76.863 4.39 C 124.863 -4.943 163.53 21.224 178.03 62.224 Z " fill="rgb(200,102,179)" vector-effect="non-scaling-stroke" stroke-width="1" stroke="rgb(200,102,179)" stroke-linejoin="miter" stroke-linecap="square" stroke-miterlimit="3"/></g></g><defs><filter id="CpfuNVVZFqcVr4IpnxVQZLzeFWGMDr5a" x="-200%" y="-200%" width="400%" height="400%" filterUnits="objectBoundingBox" color-interpolation-filters="sRGB"><feGaussianBlur xmlns="http://www.w3.org/2000/svg" in="SourceGraphic" stdDeviation="2.146804531419514"/><feOffset xmlns="http://www.w3.org/2000/svg" dx="12" dy="8" result="pf_100_offsetBlur"/><feFlood xmlns="http://www.w3.org/2000/svg" flood-color="#000000" flood-opacity="0.45"/><feComposite xmlns="http://www.w3.org/2000/svg" in2="pf_100_offsetBlur" operator="in" result="pf_100_dropShadow"/><feBlend xmlns="http://www.w3.org/2000/svg" in="SourceGraphic" in2="pf_100_dropShadow" mode="normal"/></filter></defs><g filter="url(#CpfuNVVZFqcVr4IpnxVQZLzeFWGMDr5a)"><path d=" M 164.03 83.724 C 185.197 42.39 219.197 11.057 260.53 5.724 C 295.086 4.89 330.873 20.678 352.53 50.724 C 370.197 80.724 368.197 121.724 353.53 153.724 C 335.863 188.057 300.863 210.724 252.197 240.057 C 230.197 255.39 223.863 258.724 199.197 274.39 C 177.863 287.724 157.75 316.224 164.53 339.724 C 163.028 338.67 153.315 317.68 163.197 294.39 C 171.863 272.724 242.863 222.057 271.53 202.057 C 294.863 181.39 311.863 166.39 321.53 141.724 C 331.946 120.163 331.289 97.339 319.53 73.224 C 305.08 47.999 284.423 33.842 257.53 30.057 C 221.057 29.947 189.901 47.623 164.03 83.724 Z " fill="rgb(204,0,160)" vector-effect="non-scaling-stroke" stroke-width="1" stroke="rgb(204,0,160)" stroke-linejoin="miter" stroke-linecap="square" stroke-miterlimit="3"/></g></g></g></svg>